<?xml version="1.0" encoding="utf-8" standalone="yes"?>
<!DOCTYPE svg PUBLIC "-//W3C//DTD SVG 1.1//EN" "http://www.w3.org/Graphics/SVG/1.1/DTD/svg11.dtd">
<svg style="fill:none;stroke:none;fill-rule:evenodd;clip-rule:evenodd;stroke-linecap:round;stroke-linejoin:round;stroke-miterlimit:1.5;" version="1.1" xmlns="http://www.w3.org/2000/svg" xmlns:xlink="http://www.w3.org/1999/xlink" width="924" height="624" viewBox="0 0 924 624"><style class="text-font-style fontImports" data-font-family="Shantell Sans">@import url(https://fonts.googleapis.com/css2?family=Shantell+Sans:wght@300..800&amp;amp;display=block);</style><g id="items" style="isolation: isolate"><g id="blend" style="mix-blend-mode: normal"><g id="g-root-cp_3_text-3_18iu1eworm0wf-fill" data-item-order="-462512" transform="translate(134, 134)"><g id="cp_3_text-3_18iu1eworm0wf-fill-merged" stroke="none" fill="#914673" fill-opacity="1"><g><path d="M166 52C166 55.314 163.314 58 160 58 H16C12.686 58 10 55.314 10 52 V16C10 12.686 12.686 10 16 10 H160C163.314 10 166 12.686 166 16 V52"></path></g></g></g><g id="g-root-cp_-1_parent-3-part_znti94orlzb4-fill" data-item-order="-462438" transform="translate(338, 179)"><g id="cp_-1_parent-3-part_znti94orlzb4-fill-merged" stroke="none" fill="#6b6b6b" fill-opacity="1"><g><path d="M238 166C238 169.314 235.314 172 232 172 H16C12.686 172 10 169.314 10 166 V16C10 12.686 12.686 10 16 10 H232C235.314 10 238 12.686 238 16 V166"></path></g></g></g><g id="g-root-cp_1_text-1_qs6i08orm03t-fill" data-item-order="-462382" transform="translate(614, 122)"><g id="cp_1_text-1_qs6i08orm03t-fill-merged" stroke="none" fill="#815d3b" fill-opacity="1"><g><path d="M214 76C214 79.314 211.314 82 208 82 H16C12.686 82 10 79.314 10 76 V16C10 12.686 12.686 10 16 10 H208C211.314 10 214 12.686 214 16 V76"></path></g></g></g><g id="g-root-cp_2_text-2_mcczvsorm0w2-fill" data-item-order="-462302" transform="translate(362, 416)"><g id="cp_2_text-2_mcczvsorm0w2-fill-merged" stroke="none" fill="#954643" fill-opacity="1"><g><path d="M190 52C190 55.314 187.314 58 184 58 H16C12.686 58 10 55.314 10 52 V16C10 12.686 12.686 10 16 10 H184C187.314 10 190 12.686 190 16 V52"></path></g></g></g><g id="g-root-he_mcczvsorm0w4-fill" data-item-order="-462235" transform="translate(566, 149)"></g><g id="g-root-he_dgpzmworm1ou-fill" data-item-order="-462233" transform="translate(626, 194)"></g><g id="g-root-he_hwjhrcorm1og-fill" data-item-order="-462231" transform="translate(452, 341)"></g><g id="g-root-he_hwjhrcorm1oi-fill" data-item-order="-462229" transform="translate(374, 464)"></g><g id="g-root-he_hwjhrcorm1ok-fill" data-item-order="-462227" transform="translate(290, 161)"></g><g id="g-root-he_91iylkorlzbi-fill" data-item-order="-462225" transform="translate(266, 182)"></g><g id="g-root-tx_codequal_1upb2y0orot8v-fill" data-item-order="0" transform="translate(398, 512)"><g id="tx_codequal_1upb2y0orot8v-fill-merged" stroke="none" fill="#f4f4f4" fill-opacity="1"><g><text style="font: bold 20px &quot;Shantell Sans&quot;, cursive; white-space: pre;" transform="translate(10, 22)" font-weight="bold" font-size="20px" font-family="'Shantell Sans', cursive"><tspan x="2" y="13" dominant-baseline="ideographic">code-quality</tspan></text></g></g></g><g id="g-root-ic_chec_hrjp2gornfny-fill" data-item-order="0" transform="translate(416, 197)"></g><g id="g-root-tx_copilotc_4myencornfns-fill" data-item-order="0" transform="translate(662, 134)"><g id="tx_copilotc_4myencornfns-fill-merged" stroke="none" fill="#f79438" fill-opacity="1"><g><text style="font: bold 20px &quot;Shantell Sans&quot;, cursive; white-space: pre;" transform="translate(10, 34)" font-weight="bold" font-size="20px" font-family="'Shantell Sans', cursive"><tspan x="2" y="1" dominant-baseline="ideographic">Copilot Code </tspan><tspan x="2" y="25" dominant-baseline="ideographic">Review</tspan></text></g></g></g><g id="g-root-tx_buildaut_1lzach4orlzii-fill" data-item-order="0" transform="translate(110, 194)"><g id="tx_buildaut_1lzach4orlzii-fill-merged" stroke="none" fill="#f4f4f4" fill-opacity="1"><g><text style="font: bold 20px &quot;Shantell Sans&quot;, cursive; white-space: pre;" transform="translate(154, 34)" font-weight="bold" font-size="20px" font-family="'Shantell Sans', cursive"><tspan x="-53.22" y="1" dominant-baseline="ideographic">Build </tspan><tspan x="-134.8" y="25" dominant-baseline="ideographic">automatique</tspan></text></g></g></g><g id="g-root-tx_analysed_1qd8fc8orndvt-fill" data-item-order="0" transform="translate(650, 206)"><g id="tx_analysed_1qd8fc8orndvt-fill-merged" stroke="none" fill="#f4f4f4" fill-opacity="1"><g><text style="font: bold 20px &quot;Shantell Sans&quot;, cursive; white-space: pre;" transform="translate(10, 34)" font-weight="bold" font-size="20px" font-family="'Shantell Sans', cursive"><tspan x="2" y="1" dominant-baseline="ideographic">Analyse des </tspan><tspan x="2" y="25" dominant-baseline="ideographic">fichiers modifiés</tspan></text></g></g></g><g id="g-root-tx_packagin_18ntu3sorm13f-fill" data-item-order="0" transform="translate(98, 254)"><g id="tx_packagin_18ntu3sorm13f-fill-merged" stroke="none" fill="#f4f4f4" fill-opacity="1"><g><text style="font: bold 20px &quot;Shantell Sans&quot;, cursive; white-space: pre;" transform="translate(166, 34)" font-weight="bold" font-size="20px" font-family="'Shantell Sans', cursive"><tspan x="-147.73" y="1" dominant-baseline="ideographic">Packaging via </tspan><tspan x="-47.03" y="25" dominant-baseline="ideographic">vsce</tspan></text></g></g></g><g id="g-root-ic_code_8znjc8orneh3-fill" data-item-order="0" transform="translate(626, 143)"></g><g id="g-root-tx_dtection_1d1rwywornfgq-fill" data-item-order="0" transform="translate(650, 266)"><g id="tx_dtection_1d1rwywornfgq-fill-merged" stroke="none" fill="#f4f4f4" fill-opacity="1"><g><text style="font: bold 20px &quot;Shantell Sans&quot;, cursive; white-space: pre;" transform="translate(10, 34)" font-weight="bold" font-size="20px" font-family="'Shantell Sans', cursive"><tspan x="2" y="1" dominant-baseline="ideographic">Détection des </tspan><tspan x="2" y="25" dominant-baseline="ideographic">console.log</tspan></text></g></g></g><g id="g-root-tx_workflow_qn6pbcornev9-fill" data-item-order="0" transform="translate(356, 281)"><g id="tx_workflow_qn6pbcornev9-fill-merged" stroke="none" fill="#b7b7b7" fill-opacity="1"><g><text style="font: bold 20px &quot;Shantell Sans&quot;, cursive; white-space: pre;" transform="translate(106, 34)" font-weight="bold" font-size="20px" font-family="'Shantell Sans', cursive"><tspan x="-91.82" y="1" dominant-baseline="ideographic">Workflows CI/CD </tspan><tspan x="-81.79" y="25" dominant-baseline="ideographic">GitHub Actions</tspan></text></g></g></g><g id="g-root-tx_publicat_1480bzcorm1vo-fill" data-item-order="0" transform="translate(86, 314)"><g id="tx_publicat_1480bzcorm1vo-fill-merged" stroke="none" fill="#f4f4f4" fill-opacity="1"><g><text style="font: bold 20px &quot;Shantell Sans&quot;, cursive; white-space: pre;" transform="translate(178, 34)" font-weight="bold" font-size="20px" font-family="'Shantell Sans', cursive"><tspan x="-159" y="1" dominant-baseline="ideographic">Publication sur </tspan><tspan x="-161.48" y="25" dominant-baseline="ideographic">le Marketplace</tspan></text></g></g></g><g id="g-root-tx_release_5vycoorm0w0-fill" data-item-order="0" transform="translate(146, 146)"><g id="tx_release_5vycoorm0w0-fill-merged" stroke="none" fill="#f366bb" fill-opacity="1"><g><text style="font: bold 20px &quot;Shantell Sans&quot;, cursive; white-space: pre;" transform="translate(106, 22)" font-weight="bold" font-size="20px" font-family="'Shantell Sans', cursive"><tspan x="-83.08" y="13" dominant-baseline="ideographic">Release</tspan></text></g></g></g><g id="g-root-tx_commenta_18lyeugorng8z-fill" data-item-order="0" transform="translate(650, 326)"><g id="tx_commenta_18lyeugorng8z-fill-merged" stroke="none" fill="#f4f4f4" fill-opacity="1"><g><text style="font: bold 20px &quot;Shantell Sans&quot;, cursive; white-space: pre;" transform="translate(10, 34)" font-weight="bold" font-size="20px" font-family="'Shantell Sans', cursive"><tspan x="2" y="1" dominant-baseline="ideographic">Commentaire </tspan><tspan x="2" y="25" dominant-baseline="ideographic">automatique</tspan></text></g></g></g><g id="g-root-ic_1_1qbd02worm1hl-fill" data-item-order="0" transform="translate(248, 143)"></g><g id="g-root-ic_1_zqxvooorndvw-fill" data-item-order="0" transform="translate(374, 425)"></g><g id="g-root-tx_prchecks_mahkmgorotfx-fill" data-item-order="0" transform="translate(410, 428)"><g id="tx_prchecks_mahkmgorotfx-fill-merged" stroke="none" fill="#fb6762" fill-opacity="1"><g><text style="font: bold 20px &quot;Shantell Sans&quot;, cursive; white-space: pre;" transform="translate(10, 22)" font-weight="bold" font-size="20px" font-family="'Shantell Sans', cursive"><tspan x="2" y="13" dominant-baseline="ideographic">PR Checks</tspan></text></g></g></g><g id="g-root-tx_workflow_91iylkorlzbj-fill" data-item-order="0" transform="translate(236, 38)"><g id="tx_workflow_91iylkorlzbj-fill-merged" stroke="none" fill="#f4f4f4" fill-opacity="1"><g><text style="font: bold 25px &quot;Shantell Sans&quot;, cursive; white-space: pre;" transform="translate(226, 28)" font-weight="bold" font-size="25px" font-family="'Shantell Sans', cursive"><tspan x="-212.69" y="17" dominant-baseline="ideographic">Workflows CI/CD GitHub Actions</tspan></text></g></g></g><g id="g-root-tx_prlint_8z1294orov0u-fill" data-item-order="0" transform="translate(398, 476)"><g id="tx_prlint_8z1294orov0u-fill-merged" stroke="none" fill="#f4f4f4" fill-opacity="1"><g><text style="font: bold 20px &quot;Shantell Sans&quot;, cursive; white-space: pre;" transform="translate(10, 22)" font-weight="bold" font-size="20px" font-family="'Shantell Sans', cursive"><tspan x="2" y="13" dominant-baseline="ideographic">pr-lint</tspan></text></g></g></g><g id="g-root-cp_3_text-3_18iu1eworm0wf-stroke" data-item-order="-462512" transform="translate(134, 134)"><g id="cp_3_text-3_18iu1eworm0wf-stroke" fill="none" stroke-linecap="round" stroke-linejoin="round" stroke-miterlimit="4" stroke="#2c2c2c" stroke-width="2" stroke-opacity="1"><g><path d="M 16 10C 12.6863 10 10 12.6863 10 16M 16 10L 160 10M 160 10C 163.3137 10 166 12.6863 166 16M 166 52L 166 16M 10 52L 10 16M 10 52C 10 55.3137 12.6863 58 16 58M 160 58L 16 58M 160 58C 163.3137 58 166 55.3137 166 52"></path></g></g></g><g id="g-root-cp_-1_parent-3-part_znti94orlzb4-stroke" data-item-order="-462438" transform="translate(338, 179)"><g id="cp_-1_parent-3-part_znti94orlzb4-stroke" fill="none" stroke-linecap="round" stroke-linejoin="round" stroke-miterlimit="4" stroke="#2c2c2c" stroke-width="2" stroke-opacity="1"><g><path d="M 16 10C 12.6863 10 10 12.6863 10 16M 16 10L 232 10M 232 10C 235.3137 10 238 12.6863 238 16M 238 166L 238 16M 10 166L 10 16M 10 166C 10 169.3137 12.6863 172 16 172M 232 172L 16 172M 232 172C 235.3137 172 238 169.3137 238 166"></path></g></g></g><g id="g-root-cp_1_text-1_qs6i08orm03t-stroke" data-item-order="-462382" transform="translate(614, 122)"><g id="cp_1_text-1_qs6i08orm03t-stroke" fill="none" stroke-linecap="round" stroke-linejoin="round" stroke-miterlimit="4" stroke="#2c2c2c" stroke-width="2" stroke-opacity="1"><g><path d="M 16 10C 12.6863 10 10 12.6863 10 16M 16 10L 208 10M 208 10C 211.3137 10 214 12.6863 214 16M 214 76L 214 16M 10 76L 10 16M 10 76C 10 79.3137 12.6863 82 16 82M 208 82L 16 82M 208 82C 211.3137 82 214 79.3137 214 76"></path></g></g></g><g id="g-root-cp_2_text-2_mcczvsorm0w2-stroke" data-item-order="-462302" transform="translate(362, 416)"><g id="cp_2_text-2_mcczvsorm0w2-stroke" fill="none" stroke-linecap="round" stroke-linejoin="round" stroke-miterlimit="4" stroke="#2c2c2c" stroke-width="2" stroke-opacity="1"><g><path d="M 16 10C 12.6863 10 10 12.6863 10 16M 16 10L 184 10M 184 10C 187.3137 10 190 12.6863 190 16M 190 52L 190 16M 10 52L 10 16M 10 52C 10 55.3137 12.6863 58 16 58M 184 58L 16 58M 184 58C 187.3137 58 190 55.3137 190 52"></path></g></g></g><g id="g-root-he_mcczvsorm0w4-stroke" data-item-order="-462235" transform="translate(566, 149)"><g id="he_mcczvsorm0w4-stroke" fill="none" stroke-linecap="round" stroke-linejoin="round" stroke-miterlimit="4" stroke="#ffffff" stroke-width="2" stroke-opacity="1"><style>.fillAsHole-mk-hz0c6gpbs6q4 { fill:#2C2C2C; }</style><g><path d="M 10 121L 22 121C 28.63 121 34 115.63 34 109L 34 22C 34 15.37 39.37 10 46 10L 55 10"></path><path d="M 55 10C 55.000001 11.656854 56.343147 13 58.000001 13C 59.656856 13 61.000001 11.656854 61.000001 10C 61.000001 8.343146 59.656856 7 58.000001 7C 56.343147 7 55.000001 8.343146 55.000001 10Z" stroke-dasharray="none" class="fillAsHole-mk-hz0c6gpbs6q4" fill="#2C2C2C"></path></g></g></g><g id="g-root-he_dgpzmworm1ou-stroke" data-item-order="-462233" transform="translate(626, 194)"><g id="he_dgpzmworm1ou-stroke" fill="none" stroke-linecap="round" stroke-linejoin="round" stroke-miterlimit="4" stroke="#ffffff" stroke-width="2" stroke-opacity="1"><style>.fillAsStrokeColor-mk-dj6u20pbs7id { fill:#ffffff; }
.fillAsStrokeColor-mk-dj6u20pbs7ie { fill:#ffffff; }
.fillAsStrokeColor-mk-dj6u20pbs7if { fill:#ffffff; }</style><g><path d="M 10 10L 10 142C 10 148.627421 15.372583 154.000004 22 154.000004L 22 154M 10 34L 22 34M 10 94L 22 94"></path><path d="M 20.5 154C 20.5 154.828431 21.171573 155.500004 22 155.500004C 22.828427 155.500004 23.5 154.828431 23.5 154.000004C 23.5 153.171577 22.828427 152.500004 22 152.500004C 21.171573 152.500004 20.5 153.171577 20.5 154.000004Z" stroke-dasharray="none" class="fillAsStrokeColor-mk-dj6u20pbs7id" fill="#ffffff"></path><path d="M 20.5 34C 20.5 34.828428 21.171573 35.500001 22 35.500001C 22.828427 35.500001 23.5 34.828428 23.5 34.000001C 23.5 33.171574 22.828427 32.500001 22 32.500001C 21.171573 32.500001 20.5 33.171574 20.5 34.000001Z" stroke-dasharray="none" class="fillAsStrokeColor-mk-dj6u20pbs7ie" fill="#ffffff"></path><path d="M 20.5 94C 20.5 94.82843 21.171573 95.500003 22 95.500003C 22.828427 95.500003 23.5 94.82843 23.5 94.000003C 23.5 93.171575 22.828427 92.500003 22 92.500003C 21.171573 92.500003 20.5 93.171575 20.5 94.000003Z" stroke-dasharray="none" class="fillAsStrokeColor-mk-dj6u20pbs7if" fill="#ffffff"></path></g></g></g><g id="g-root-he_hwjhrcorm1og-stroke" data-item-order="-462231" transform="translate(452, 341)"><g id="he_hwjhrcorm1og-stroke" fill="none" stroke-linecap="round" stroke-linejoin="round" stroke-miterlimit="4" stroke="#ffffff" stroke-width="2" stroke-opacity="1"><style>.fillAsHole-mk-93dbxkpbs8ao { fill:#2C2C2C; }</style><g><path d="M 10 10L 10 82"></path><path d="M 7 85C 7 86.656856 8.343146 88.000002 10 88.000002C 11.656854 88.000002 13 86.656856 13 85.000002C 13 83.343148 11.656854 82.000002 10 82.000002C 8.343146 82.000002 7 83.343148 7 85.000002Z" stroke-dasharray="none" class="fillAsHole-mk-93dbxkpbs8ao" fill="#2C2C2C"></path></g></g></g><g id="g-root-he_hwjhrcorm1oi-stroke" data-item-order="-462229" transform="translate(374, 464)"><g id="he_hwjhrcorm1oi-stroke" fill="none" stroke-linecap="round" stroke-linejoin="round" stroke-miterlimit="4" stroke="#ffffff" stroke-width="2" stroke-opacity="1"><style>.fillAsStrokeColor-mk-93dbxkpbs8ap { fill:#ffffff; }
.fillAsStrokeColor-mk-93dbxkpbs8aq { fill:#ffffff; }</style><g><path d="M 10 10L 10 58C 10 64.627419 15.372583 70.000002 22 70.000002L 22 70M 10 34L 22 34"></path><path d="M 20.5 70C 20.5 70.828429 21.171573 71.500002 22 71.500002C 22.828427 71.500002 23.5 70.828429 23.5 70.000002C 23.5 69.171575 22.828427 68.500002 22 68.500002C 21.171573 68.500002 20.5 69.171575 20.5 70.000002Z" stroke-dasharray="none" class="fillAsStrokeColor-mk-93dbxkpbs8ap" fill="#ffffff"></path><path d="M 20.5 34C 20.5 34.828428 21.171573 35.500001 22 35.500001C 22.828427 35.500001 23.5 34.828428 23.5 34.000001C 23.5 33.171574 22.828427 32.500001 22 32.500001C 21.171573 32.500001 20.5 33.171574 20.5 34.000001Z" stroke-dasharray="none" class="fillAsStrokeColor-mk-93dbxkpbs8aq" fill="#ffffff"></path></g></g></g><g id="g-root-he_hwjhrcorm1ok-stroke" data-item-order="-462227" transform="translate(290, 161)"><g id="he_hwjhrcorm1ok-stroke" fill="none" stroke-linecap="round" stroke-linejoin="round" stroke-miterlimit="4" stroke="#ffffff" stroke-width="2" stroke-opacity="1"><style>.fillAsHole-mk-7qboopbs93f { fill:#2C2C2C; }</style><g><path d="M 58 109L 46 109C 39.37 109 34 103.63 34 97L 34 22C 34 15.37 28.63 10 22 10L 13 10"></path><path d="M 7 10C 7 11.656854 8.343146 13 10 13C 11.656854 13 13 11.656854 13 10C 13 8.343146 11.656854 7 10 7C 8.343146 7 7 8.343146 7 10Z" stroke-dasharray="none" class="fillAsHole-mk-7qboopbs93f" fill="#2C2C2C"></path></g></g></g><g id="g-root-he_91iylkorlzbi-stroke" data-item-order="-462225" transform="translate(266, 182)"><g id="he_91iylkorlzbi-stroke" fill="none" stroke-linecap="round" stroke-linejoin="round" stroke-miterlimit="4" stroke="#ffffff" stroke-width="2" stroke-opacity="1"><style>.fillAsStrokeColor-mk-7qboopbs93g { fill:#ffffff; }
.fillAsStrokeColor-mk-7qboopbs93h { fill:#ffffff; }
.fillAsStrokeColor-mk-7qboopbs93i { fill:#ffffff; }</style><g><path d="M 22 10L 22 142C 22.000001 148.627421 16.627417 154.000004 10 154.000004L 10 154M 22 34L 10 34M 22 94L 10 94"></path><path d="M 8.5 154C 8.5 154.828431 9.171573 155.500004 10 155.500004C 10.828427 155.500004 11.5 154.828431 11.5 154.000004C 11.5 153.171577 10.828427 152.500004 10 152.500004C 9.171573 152.500004 8.5 153.171577 8.5 154.000004Z" stroke-dasharray="none" class="fillAsStrokeColor-mk-7qboopbs93g" fill="#ffffff"></path><path d="M 8.5 34C 8.5 34.828428 9.171573 35.500001 10 35.500001C 10.828427 35.500001 11.5 34.828428 11.5 34.000001C 11.5 33.171574 10.828427 32.500001 10 32.500001C 9.171573 32.500001 8.5 33.171574 8.5 34.000001Z" stroke-dasharray="none" class="fillAsStrokeColor-mk-7qboopbs93h" fill="#ffffff"></path><path d="M 8.5 94C 8.5 94.82843 9.171573 95.500003 10 95.500003C 10.828427 95.500003 11.5 94.82843 11.5 94.000003C 11.5 93.171575 10.828427 92.500003 10 92.500003C 9.171573 92.500003 8.5 93.171575 8.5 94.000003Z" stroke-dasharray="none" class="fillAsStrokeColor-mk-7qboopbs93i" fill="#ffffff"></path></g></g></g><g id="g-root-tx_codequal_1upb2y0orot8v-stroke" data-item-order="0" transform="translate(398, 512)"></g><g id="g-root-ic_chec_hrjp2gornfny-stroke" data-item-order="0" transform="translate(416, 197)"><g id="ic_chec_hrjp2gornfny-stroke" fill="none" stroke-linecap="round" stroke-linejoin="round" stroke-miterlimit="4" stroke="#b7b7b7" stroke-width="2" stroke-opacity="1"><g><path d="M 63.850002 31.60021L 27.850029 31.60021L 27.850029 79.600296L 63.850002 79.600296L 63.850002 31.60021ZM 69.850006 48.3997L 79.449997 48.3997M 69.850006 60.3997L 79.449997 60.3997M 69.850006 72.399704L 76.449997 72.399704C 78.25 72.399704 79.449997 71.199699 79.449997 69.399704L 79.449997 39.399788C 79.449997 37.599792 78.25 36.399788 76.449997 36.399788L 69.850006 36.399788M 29.350029 47.499699L 63.850002 47.499699M 29.350029 63.999702L 63.850002 63.999702M 21.84997 48.3997L 12.25 48.3997M 21.84997 60.3997L 12.25 60.3997M 21.85 72.399704L 15.25 72.399704C 13.45 72.399704 12.25 71.199699 12.25 69.399704L 12.25 39.399788C 12.25 37.599792 13.45 36.399788 15.25 36.399788L 21.85 36.399788M 10 10M 41.349998 15.39979L 45.849998 19.59976L 53.349998 12.399781"></path></g></g></g><g id="g-root-tx_copilotc_4myencornfns-stroke" data-item-order="0" transform="translate(662, 134)"></g><g id="g-root-tx_buildaut_1lzach4orlzii-stroke" data-item-order="0" transform="translate(110, 194)"></g><g id="g-root-tx_analysed_1qd8fc8orndvt-stroke" data-item-order="0" transform="translate(650, 206)"></g><g id="g-root-tx_packagin_18ntu3sorm13f-stroke" data-item-order="0" transform="translate(98, 254)"></g><g id="g-root-ic_code_8znjc8orneh3-stroke" data-item-order="0" transform="translate(626, 143)"><g id="ic_code_8znjc8orneh3-stroke" fill="none" stroke-linecap="round" stroke-linejoin="round" stroke-miterlimit="4" stroke="#f79438" stroke-width="2" stroke-opacity="1"><g><path d="M 37.5 27.23625C 37.398571 34.03933 31.803129 39.473061 25 39.375C 18.196871 39.473061 12.601431 34.03933 12.5 27.23625C 12.5 18.29125 23.68375 15.0975 23.68375 10.625C 23.68375 10.625 29.605 12.54125 28.290001 16.375C 26.705 20.991251 25.657499 24.68 29.605 24.68C 33.552498 24.68 32.895 19.57 32.895 19.57C 35.805389 20.995991 37.608105 23.997093 37.5 27.23625ZM 19.73625 34.263748C 19.823912 37.107697 22.154701 39.367748 25 39.367748C 27.845297 39.367748 30.176088 37.107697 30.263748 34.263748C 30.26375 29.7875 23.026249 31.708752 23.026249 25.95875C 21.08721 28.314405 19.93646 31.219263 19.73625 34.263748Z"></path></g></g></g><g id="g-root-tx_dtection_1d1rwywornfgq-stroke" data-item-order="0" transform="translate(650, 266)"></g><g id="g-root-tx_workflow_qn6pbcornev9-stroke" data-item-order="0" transform="translate(356, 281)"></g><g id="g-root-tx_publicat_1480bzcorm1vo-stroke" data-item-order="0" transform="translate(86, 314)"></g><g id="g-root-tx_release_5vycoorm0w0-stroke" data-item-order="0" transform="translate(146, 146)"></g><g id="g-root-tx_commenta_18lyeugorng8z-stroke" data-item-order="0" transform="translate(650, 326)"></g><g id="g-root-ic_1_1qbd02worm1hl-stroke" data-item-order="0" transform="translate(248, 143)"><g id="ic_1_1qbd02worm1hl-stroke" fill="none" stroke-linecap="round" stroke-linejoin="round" stroke-miterlimit="4" stroke="#f366bb" stroke-width="2" stroke-opacity="1"><g><path d="M 34.375 25.625L 34.375 18.0975C 34.377071 13.971159 31.032591 10.624999 26.90625 10.625L 11.875 10.625C 11.184644 10.625 10.625 11.184644 10.625 11.875L 10.625 38.125C 10.625 38.815353 11.184644 39.375 11.875 39.375L 15.625 39.375M 28.125 10.73L 28.125 15.625C 28.125 16.315355 28.684643 16.875 29.375 16.875L 34.275002 16.875M 39.375 39.375L 36.25 39.375C 35.214466 39.375 34.375 38.535534 34.375 37.5L 34.375 31.25C 34.375 30.214466 35.214466 29.375 36.25 29.375L 39.375 29.375M 34.375 34.380001L 37.5 34.380001M 24.375 39.375L 21.25 39.375C 20.214466 39.375 19.375 38.535534 19.375 37.5L 19.375 31.25C 19.375 30.214466 20.214466 29.375 21.25 29.375L 24.375 29.375M 19.375 34.380001L 22.5 34.380001M 26.875 39.380001L 31.875 29.379999M 31.875 39.380001L 26.875 29.379999"></path></g></g></g><g id="g-root-ic_1_zqxvooorndvw-stroke" data-item-order="0" transform="translate(374, 425)"><g id="ic_1_zqxvooorndvw-stroke" fill="none" stroke-linecap="round" stroke-linejoin="round" stroke-miterlimit="4" stroke="#fb6762" stroke-width="2" stroke-opacity="1"><g><path d="M 23.125 39.375L 11.875 39.375C 11.184644 39.375 10.625 38.815353 10.625 38.125L 10.625 11.875C 10.625 11.184644 11.184644 10.625 11.875 10.625L 28.491251 10.625C 28.824005 10.627385 29.142075 10.762351 29.375 11L 34.008751 15.625C 34.243187 15.859366 34.374928 16.177258 34.375 16.508749L 34.375 20.625M 18.125 18.755001L 14.375 22.504999L 18.125 26.254999M 21.875 18.755001L 25.625 22.504999L 21.875 26.254999M 24.375 31.879999C 24.375002 36.022137 27.732864 39.380001 31.875 39.380001C 36.017136 39.380001 39.375 36.022137 39.375 31.879999C 39.375 27.737865 36.017136 24.380001 31.875 24.380001C 27.732864 24.380001 24.375002 27.737865 24.375002 31.879999ZM 35.217499 29.69875L 31.586248 34.541248C 31.422878 34.75853 31.173336 34.894318 30.902168 34.913498C 30.630999 34.932678 30.364828 34.83337 30.172499 34.641251L 28.297499 32.766251"></path></g></g></g><g id="g-root-tx_prchecks_mahkmgorotfx-stroke" data-item-order="0" transform="translate(410, 428)"></g><g id="g-root-tx_workflow_91iylkorlzbj-stroke" data-item-order="0" transform="translate(236, 38)"></g><g id="g-root-tx_prlint_8z1294orov0u-stroke" data-item-order="0" transform="translate(398, 476)"></g></g></g><path id="wqoelk8pm1n9c" d="M65.283 12.757a.35.35 0 0 0 .584.157l5.203-5.141-6.183 3.523.396 1.461zm-2.216-11.7a.35.35 0 0 0-.522.305v3.111l3.276-1.868-2.754-1.548zm3.728 2.105l-4.25 2.421v2.445l6.391-3.644-2.141-1.222zm4.708 3.303a.35.35 0 0 0 0-.609l-1.592-.9-7.365 4.199v1.782a.35.35 0 0 0 .523.305l8.435-4.777z M44.542 2.513c0-.433.355-.783.792-.783s.792.35.792.783-.355.783-.792.783-.792-.35-.792-.783zm59.171 0c0-.433.355-.783.792-.783s.792.35.792.783-.355.783-.792.783-.792-.35-.792-.783zm-85.951 7.636h-1.27v-.487c-.276.201-.864.609-1.881.609-1.202 0-2.274-.794-2.137-2.078.118-1.106 1.153-1.584 1.848-1.727l2.17-.345c0-.539-.29-.956-1.064-1.006s-1.21.305-1.571 1.017l-1.124-.605c1.218-2.631 5.029-1.764 5.029.414v4.207zm-1.27-2.86c.006.396-.062 1.112-.819 1.59-.587.37-1.841.299-1.903-.395-.049-.555.461-.791.906-.898l1.816-.297zm72.662 2.86h-1.27v-.487c-.276.201-.864.609-1.881.609-1.202 0-2.274-.794-2.137-2.078.118-1.106 1.153-1.584 1.848-1.727l2.17-.345c0-.539-.29-.956-1.064-1.006s-1.21.305-1.571 1.017l-1.124-.605c1.218-2.631 5.029-1.764 5.029.414v4.207zm-1.27-2.86c.006.396-.062 1.112-.82 1.59-.587.37-1.841.299-1.903-.395-.049-.555.461-.791.906-.898l1.816-.297zM99.096 10.149H97.85v-8.45h1.246v4.895l2.68-2.559h1.738l-2.633 2.535 2.715 3.578h-1.556l-2.077-2.707-.867.844v1.863zm6.053-6.114h-1.255v6.113h1.255V4.035zm-59.2 0h-1.255v6.113h1.255V4.035zm5.584 6.113V1.697h1.255v2.695c.361-.346 1-.485 1.47-.485 1.452 0 2.477 1.082 2.457 2.448v3.792h-1.27v-3.68c0-.408-.214-1.339-1.315-1.339-.968 0-1.342.756-1.342 1.339v3.681h-1.255zm-4.76-4.894V4.039h.621a.45.45 0 0 0 .45-.45v-.855h1.251v1.305h1.309v1.215h-1.309v3.109c0 .293.105.664.648.664.365 0 .531-.035.736-.07v1.137s-.361.113-.857.113c-1.398 0-1.777-1.051-1.777-1.788V5.254h-1.071zM36.528 4.039h-1.394l2.191 6.106h1.125l1.234-3.918 1.238 3.918h1.129l2.188-6.106h-1.383l-1.359 3.93-1.256-3.93h-1.124l-1.242 3.957-1.348-3.957zM26.212 7.141c-.02 1.566 1.187 3.129 3.223 3.129 1.566 0 2.383-.918 2.734-1.719L31.172 8c-.315.399-.801 1.094-1.738 1.094-1.145 0-1.825-.781-1.891-1.52h4.625c.074-.284.148-.995-.03-1.559-.336-1.064-1.221-2.102-2.839-2.102s-3.088 1.152-3.088 3.227zm1.363-.75h3.348c-.055-.43-.566-1.301-1.623-1.301a1.79 1.79 0 0 0-1.725 1.301zm-8.758.75c.038 1.758 1.277 3.133 3.145 3.133 1.074 0 1.723-.477 1.961-.672v.547h1.242V1.703h-1.258v2.888c-.414-.36-1.062-.68-1.93-.68-1.91 0-3.198 1.473-3.16 3.23zm1.309-.08c0 1.119.723 1.978 1.836 1.978a1.88 1.88 0 0 0 1.94-1.904c0-1.371-1.011-1.99-1.972-1.99s-1.805.798-1.805 1.916zm76.683-.028C96.771 5.275 95.532 3.9 93.664 3.9c-1.074 0-1.723.477-1.961.672v-.547h-1.242v8.22h1.258V9.583c.414.36 1.063.68 1.93.68 1.91 0 3.198-1.473 3.16-3.23zm-1.309.08c0-1.119-.723-1.978-1.836-1.978a1.88 1.88 0 0 0-1.94 1.904c0 1.371 1.011 1.99 1.972 1.99S95.5 8.231 95.5 7.113zM106.441 10.173V4.036h1.254v.382c.361-.346 1-.485 1.47-.485 1.452 0 2.477 1.082 2.457 2.448v3.792h-1.27V6.492c0-.408-.214-1.339-1.315-1.339-.969 0-1.342.756-1.342 1.339v3.681h-1.254zm-30.383-.021V1.824h1.084l4.215 5.777V1.824h1.32v8.328h-1.094l-4.207-5.796v5.796h-1.319zM5.24 10.149H4V2.377h1.014l2.664 3.597 2.654-3.592h1.03v7.766h-1.256V4.762L7.678 8.068 5.24 4.742v5.407z" transform="translate(788, 590)" fill="#ababab88" stroke="none"></path></svg>