<?xml version="1.0" encoding="utf-8" standalone="yes"?>
<!DOCTYPE svg PUBLIC "-//W3C//DTD SVG 1.1//EN" "http://www.w3.org/Graphics/SVG/1.1/DTD/svg11.dtd">
<svg style="fill:none;stroke:none;fill-rule:evenodd;clip-rule:evenodd;stroke-linecap:round;stroke-linejoin:round;stroke-miterlimit:1.5;" version="1.1" xmlns="http://www.w3.org/2000/svg" xmlns:xlink="http://www.w3.org/1999/xlink" width="756" height="612" viewBox="0 0 756 612"><style class="text-font-style fontImports" data-font-family="Shantell Sans">@import url(https://fonts.googleapis.com/css2?family=Shantell+Sans:wght@300..800&amp;amp;display=block);</style><g id="items" style="isolation: isolate"><g id="blend" style="mix-blend-mode: normal"><g id="g-root-sy_4_Vector_1cuwce0q5se12-fill" data-item-order="-28503" transform="translate(362, 230)"></g><g id="g-root-sy_4_cu_1cuwce0q5se13-fill" data-item-order="-28499" transform="translate(362, 518)"></g><g id="g-root-cr_4_cr-big_1cuwce0q5se14-fill" data-item-order="-28496" transform="translate(326, 446)"><g id="cr_4_cr-big_1cuwce0q5se14-fill-merged" stroke="none" fill="#954643" fill-opacity="1"><g><path d="M10 46C10 65.882 26.118 82 46 82C65.882 82 82 65.882 82 46C82 26.118 65.882 10 46 10C26.118 10 10 26.118 10 46"></path></g></g></g><g id="g-root-cr_3_cr-big_18f2u9kq5setd-fill" data-item-order="-28492" transform="translate(326, 350)"><g id="cr_3_cr-big_18f2u9kq5setd-fill-merged" stroke="none" fill="#60703f" fill-opacity="1"><g><path d="M10 46C10 65.882 26.118 82 46 82C65.882 82 82 65.882 82 46C82 26.118 65.882 10 46 10C26.118 10 10 26.118 10 46"></path></g></g></g><g id="g-root-cr_2_cr-big_18f2u9kq5sete-fill" data-item-order="-28488" transform="translate(326, 254)"><g id="cr_2_cr-big_18f2u9kq5sete-fill-merged" stroke="none" fill="#41735b" fill-opacity="1"><g><path d="M10 46C10 65.882 26.118 82 46 82C65.882 82 82 65.882 82 46C82 26.118 65.882 10 46 10C26.118 10 10 26.118 10 46"></path></g></g></g><g id="g-root-cr_1_cr-big_zjfu0oq5sfm3-fill" data-item-order="-28484" transform="translate(326, 158)"><g id="cr_1_cr-big_zjfu0oq5sfm3-fill-merged" stroke="none" fill="#426397" fill-opacity="1"><g><path d="M10 46C10 65.882 26.118 82 46 82C65.882 82 82 65.882 82 46C82 26.118 65.882 10 46 10C26.118 10 10 26.118 10 46"></path></g></g></g><g id="g-root-tx_pipeline_zjfu0oq5sfm4-fill" data-item-order="0" transform="translate(-4, 38)"><g id="tx_pipeline_zjfu0oq5sfm4-fill-merged" stroke="none" fill="#f4f4f4" fill-opacity="1"><g><text style="font: bold 25px &quot;Shantell Sans&quot;, cursive; white-space: pre;" transform="translate(376, 28)" font-weight="bold" font-size="25px" font-family="'Shantell Sans', cursive"><tspan x="-361.04" y="17" dominant-baseline="ideographic">Pipeline de déploiement et de surveillance automatisés</tspan></text></g></g></g><g id="g-root-ic_batc_1uqjohkq5tseg-fill" data-item-order="0" transform="translate(338, 170)"></g><g id="g-root-tx_automati_1q9h86wq5sdms-fill" data-item-order="0" transform="translate(38, 170)"><g id="tx_automati_1q9h86wq5sdms-fill-merged" stroke="none" fill="#4f91fc" fill-opacity="1"><g><text style="font: bold 20px &quot;Shantell Sans&quot;, cursive; white-space: pre;" transform="translate(274, 34)" font-weight="bold" font-size="20px" font-family="'Shantell Sans', cursive"><tspan x="-198.34" y="1" dominant-baseline="ideographic">Automatisation du </tspan><tspan x="-252.05" y="25" dominant-baseline="ideographic">déploiement avec Azure</tspan></text></g></g></g><g id="g-root-ic_coin_hssam0q5ts7j-fill" data-item-order="0" transform="translate(338, 266)"></g><g id="g-root-tx_gestions_4j77i0q5sfer-fill" data-item-order="0" transform="translate(422, 266)"><g id="tx_gestions_4j77i0q5sfer-fill-merged" stroke="none" fill="#43dd93" fill-opacity="1"><g><text style="font: bold 20px &quot;Shantell Sans&quot;, cursive; white-space: pre;" transform="translate(10, 34)" font-weight="bold" font-size="20px" font-family="'Shantell Sans', cursive"><tspan x="2" y="1" dominant-baseline="ideographic">Gestion sécurisée du jeton </tspan><tspan x="2" y="25" dominant-baseline="ideographic">VSCE</tspan></text></g></g></g><g id="g-root-ic_lock_hz11h4q5sgee-fill" data-item-order="0" transform="translate(338, 362)"></g><g id="g-root-tx_dclenche_hunpvcq5sdtu-fill" data-item-order="0" transform="translate(26, 362)"><g id="tx_dclenche_hunpvcq5sdtu-fill-merged" stroke="none" fill="#a6da37" fill-opacity="1"><g><text style="font: bold 20px &quot;Shantell Sans&quot;, cursive; white-space: pre;" transform="translate(286, 34)" font-weight="bold" font-size="20px" font-family="'Shantell Sans', cursive"><tspan x="-201.86" y="1" dominant-baseline="ideographic">Déclenchement des </tspan><tspan x="-268.45" y="25" dominant-baseline="ideographic">workflows de publication</tspan></text></g></g></g><g id="g-root-ic_in_1hdu7y0q5sefh-fill" data-item-order="0" transform="translate(338, 458)"></g><g id="g-root-tx_surveill_v5hr5kq5sfep-fill" data-item-order="0" transform="translate(422, 458)"><g id="tx_surveill_v5hr5kq5sfep-fill-merged" stroke="none" fill="#fb6762" fill-opacity="1"><g><text style="font: bold 20px &quot;Shantell Sans&quot;, cursive; white-space: pre;" transform="translate(10, 34)" font-weight="bold" font-size="20px" font-family="'Shantell Sans', cursive"><tspan x="2" y="1" dominant-baseline="ideographic">Surveillance des erreurs </tspan><tspan x="2" y="25" dominant-baseline="ideographic">utilisateurs avec Sentry</tspan></text></g></g></g><g id="g-root-sy_4_Vector_1cuwce0q5se12-stroke" data-item-order="-28503" transform="translate(362, 230)"><g id="sy_4_Vector_1cuwce0q5se12-stroke" fill="none" stroke-linecap="round" stroke-linejoin="round" stroke-miterlimit="4" stroke="#ababab" stroke-width="2" stroke-opacity="1"><g><path d="M 10 226L 10 202M 10 130L 10 106M 10 34L 10 10"></path></g></g></g><g id="g-root-sy_4_cu_1cuwce0q5se13-stroke" data-item-order="-28499" transform="translate(362, 518)"><g id="sy_4_cu_1cuwce0q5se13-stroke" fill="none" stroke-linecap="round" stroke-linejoin="round" stroke-miterlimit="4" stroke="#ababab" stroke-width="2" stroke-opacity="1"><g><path d="M 10 44L 10 10"></path><path d="M 3.5 38L 10 44.5L 16.5 38" stroke-dasharray="none"></path></g></g></g><g id="g-root-cr_4_cr-big_1cuwce0q5se14-stroke" data-item-order="-28496" transform="translate(326, 446)"><g id="cr_4_cr-big_1cuwce0q5se14-stroke" fill="none" stroke-linecap="round" stroke-linejoin="round" stroke-miterlimit="4" stroke="#2c2c2c" stroke-width="2" stroke-opacity="1"><g><path d="M 10 46C 10 65.882251 26.117749 82 46 82C 65.882251 82 82 65.882251 82 46C 82 26.117749 65.882251 10 46 10C 26.117749 10 10 26.117749 10 46Z"></path></g></g></g><g id="g-root-cr_3_cr-big_18f2u9kq5setd-stroke" data-item-order="-28492" transform="translate(326, 350)"><g id="cr_3_cr-big_18f2u9kq5setd-stroke" fill="none" stroke-linecap="round" stroke-linejoin="round" stroke-miterlimit="4" stroke="#2c2c2c" stroke-width="2" stroke-opacity="1"><g><path d="M 10 46C 10 65.882251 26.117749 82 46 82C 65.882251 82 82 65.882251 82 46C 82 26.117749 65.882251 10 46 10C 26.117749 10 10 26.117749 10 46Z"></path></g></g></g><g id="g-root-cr_2_cr-big_18f2u9kq5sete-stroke" data-item-order="-28488" transform="translate(326, 254)"><g id="cr_2_cr-big_18f2u9kq5sete-stroke" fill="none" stroke-linecap="round" stroke-linejoin="round" stroke-miterlimit="4" stroke="#2c2c2c" stroke-width="2" stroke-opacity="1"><g><path d="M 10 46C 10 65.882251 26.117749 82 46 82C 65.882251 82 82 65.882251 82 46C 82 26.117749 65.882251 10 46 10C 26.117749 10 10 26.117749 10 46Z"></path></g></g></g><g id="g-root-cr_1_cr-big_zjfu0oq5sfm3-stroke" data-item-order="-28484" transform="translate(326, 158)"><g id="cr_1_cr-big_zjfu0oq5sfm3-stroke" fill="none" stroke-linecap="round" stroke-linejoin="round" stroke-miterlimit="4" stroke="#2c2c2c" stroke-width="2" stroke-opacity="1"><g><path d="M 10 46C 10 65.882251 26.117749 82 46 82C 65.882251 82 82 65.882251 82 46C 82 26.117749 65.882251 10 46 10C 26.117749 10 10 26.117749 10 46Z"></path></g></g></g><g id="g-root-tx_pipeline_zjfu0oq5sfm4-stroke" data-item-order="0" transform="translate(-4, 38)"></g><g id="g-root-ic_batc_1uqjohkq5tseg-stroke" data-item-order="0" transform="translate(338, 170)"><g id="ic_batc_1uqjohkq5tseg-stroke" fill="none" stroke-linecap="round" stroke-linejoin="round" stroke-miterlimit="4" stroke="#4f91fc" stroke-width="2" stroke-opacity="1"><g><path d="M 17.700081 38.9002C 21.013779 38.9002 23.700081 36.213799 23.700081 32.9002C 23.700081 29.586439 21.013779 26.900141 17.700081 26.900141C 14.38636 26.900141 11.700074 29.586439 11.700074 32.9002C 11.700074 36.213799 14.38636 38.9002 17.700081 38.9002ZM 34.700001 56.5C 38.013802 56.5 40.700001 53.813801 40.700001 50.5C 40.700001 47.186199 38.013802 44.5 34.700001 44.5C 31.3864 44.5 28.700081 47.186199 28.700081 50.5C 28.700081 53.813801 31.3864 56.5 34.700001 56.5ZM 34.700001 37.9002C 37.461399 37.9002 39.700001 35.661598 39.700001 32.9002C 39.700001 30.1388 37.461399 27.900141 34.700001 27.900141C 31.938601 27.900141 29.700081 30.1388 29.700081 32.9002C 29.700081 35.661598 31.938601 37.9002 34.700001 37.9002ZM 34.700001 21.5C 37.461399 21.5 39.700001 19.261421 39.700001 16.5C 39.700001 13.73858 37.461399 11.5 34.700001 11.5C 31.938601 11.5 29.700081 13.73858 29.700081 16.5C 29.700081 19.261421 31.938601 21.5 34.700001 21.5ZM 17.700081 55.5C 20.4615 55.5 22.700081 53.261398 22.700081 50.5C 22.700081 47.738602 20.4615 45.5 17.700081 45.5C 14.938641 45.5 12.70008 47.738602 12.70008 50.5C 12.70008 53.261398 14.938641 55.5 17.700081 55.5ZM 51.299999 55.5C 54.061401 55.5 56.299999 53.261398 56.299999 50.5C 56.299999 47.738602 54.061401 45.5 51.299999 45.5C 48.538601 45.5 46.299999 47.738602 46.299999 50.5C 46.299999 53.261398 48.538601 55.5 51.299999 55.5ZM 51.299999 37.9002C 54.061401 37.9002 56.299999 35.661598 56.299999 32.9002C 56.299999 30.1388 54.061401 27.900141 51.299999 27.900141C 48.538601 27.900141 46.299999 30.1388 46.299999 32.9002C 46.299999 35.661598 48.538601 37.9002 51.299999 37.9002ZM 17.700081 38.9002L 17.700081 45.5M 10 10M 34.700001 37.9002L 34.700001 44.5M 51.299999 37.9002L 51.299999 45.5M 23.700081 32.9002L 29.700041 32.9002M 39.700001 32.9002L 46.300201 32.9002M 34.700001 21.5L 34.700001 27.900141M 34.700001 52.382599C 35.739799 52.382599 36.5826 51.539799 36.5826 50.5C 36.5826 49.4604 35.739799 48.617401 34.700001 48.617401C 33.660202 48.617401 32.817398 49.4604 32.817398 50.5C 32.817398 51.539799 33.660202 52.382599 34.700001 52.382599ZM 17.70002 34.782799C 18.739761 34.782799 19.58264 33.940002 19.58264 32.9002C 19.58264 31.860399 18.739761 31.017599 17.70002 31.017599C 16.660259 31.017599 15.81738 31.860399 15.81738 32.9002C 15.81738 33.940002 16.660259 34.782799 17.70002 34.782799Z"></path></g></g></g><g id="g-root-tx_automati_1q9h86wq5sdms-stroke" data-item-order="0" transform="translate(38, 170)"></g><g id="g-root-ic_coin_hssam0q5ts7j-stroke" data-item-order="0" transform="translate(338, 266)"><g id="ic_coin_hssam0q5ts7j-stroke" fill="none" stroke-linecap="round" stroke-linejoin="round" stroke-miterlimit="4" stroke="#43dd93" stroke-width="2" stroke-opacity="1"><g><path d="M 10 10M 32.876999 35.3204L 39.049801 24.628479L 42.207401 26.4515M 28.330999 43.202953C 30.50532 44.458294 33.285606 43.713318 34.540955 41.539001C 35.796295 39.364685 35.051319 36.584393 32.876999 35.329048C 30.702682 34.073708 27.922392 34.81868 26.667049 36.993C 25.411705 39.16732 26.156683 41.947609 28.331001 43.202953M 34 55.860001C 46.072945 55.860001 55.860001 46.072945 55.860001 34C 55.860001 21.927055 46.072945 12.140001 34 12.140001C 21.927055 12.140001 12.140001 21.927055 12.140001 34C 12.140001 46.072945 21.927055 55.860001 34 55.860001M 34 51.515999C 43.675266 51.518044 51.519699 43.675266 51.519699 34C 51.519699 24.324736 43.675266 16.481956 34 16.484001C 24.324736 16.481956 16.480301 24.324736 16.480301 34C 16.480301 43.675266 24.324736 51.518044 34 51.516003M 10 10M 36.216801 29.539061L 39.374802 31.3624"></path></g></g></g><g id="g-root-tx_gestions_4j77i0q5sfer-stroke" data-item-order="0" transform="translate(422, 266)"></g><g id="g-root-ic_lock_hz11h4q5sgee-stroke" data-item-order="0" transform="translate(338, 362)"><g id="ic_lock_hz11h4q5sgee-stroke" fill="none" stroke-linecap="round" stroke-linejoin="round" stroke-miterlimit="4" stroke="#a6da37" stroke-width="2" stroke-opacity="1"><g><path d="M 35.526001 45.495998L 15.378 45.495998C 13.069907 45.493793 11.199999 43.622093 11.2 41.314003L 11.2 15.182C 11.199999 12.873906 13.069907 11.002208 15.378 11L 46.737999 11C 49.046875 11.001104 50.918003 12.873126 50.918003 15.182L 50.917999 27.854M 11.196 19.166L 50.917999 19.166M 11.196 36.515999L 35.526001 36.515999M 11.196 27.854L 50.917999 27.854M 27.42 19.166L 27.42 45.495998M 39.052002 19.166L 39.052002 33.206001M 39.672001 45.104C 39.671997 43.461506 41.003502 42.130001 42.646 42.130001L 53.830002 42.130001C 55.470932 42.132206 56.799999 43.463066 56.799999 45.104L 56.799999 54.026001C 56.799999 55.666935 55.470932 56.997791 53.829998 57L 42.646 57C 41.003502 57 39.671997 55.668495 39.671997 54.026001ZM 48.237999 33.200001L 48.237999 33.200001C 45.019161 33.266701 42.463272 35.929119 42.528 39.147999L 42.528 42.124001L 53.948002 42.124001L 53.948002 39.153999C 54.01609 35.9328 51.459229 33.266678 48.237999 33.199997ZM 48.237999 47.481998C 47.359489 47.446079 46.547329 47.94772 46.186138 48.749352C 45.824951 49.550987 45.987244 50.49168 46.596161 51.125946C 47.205082 51.760212 48.138378 51.960716 48.954067 51.6325C 49.76976 51.304287 50.304085 50.513248 50.304001 49.634003C 50.327431 48.469349 49.40263 47.506054 48.237999 47.481998L 48.237999 47.481998"></path></g></g></g><g id="g-root-tx_dclenche_hunpvcq5sdtu-stroke" data-item-order="0" transform="translate(26, 362)"></g><g id="g-root-ic_in_1hdu7y0q5sefh-stroke" data-item-order="0" transform="translate(338, 458)"><g id="ic_in_1hdu7y0q5sefh-stroke" fill="none" stroke-linecap="round" stroke-linejoin="round" stroke-miterlimit="4" stroke="#fb6762" stroke-width="2" stroke-opacity="1"><g><path d="M 29 34C 29 36.761425 31.238577 39 34 39C 36.761425 39 39 36.761425 39 34C 39 31.238577 36.761425 29 34 29C 31.238577 29 29 31.238577 29 34M 56.5 48.4776L 38 48.4776M 10 10M 46.890598 56.366199L 38.001801 48.477402L 46.890598 40.588402M 34 56.5C 21.573601 56.5 11.5 46.426399 11.5 34C 11.5 21.573601 21.573601 11.5 34 11.5C 46.426399 11.5 56.5 21.573601 56.5 34C 56.5 36.568802 56.069401 39.037201 55.2766 41.3368"></path></g></g></g><g id="g-root-tx_surveill_v5hr5kq5sfep-stroke" data-item-order="0" transform="translate(422, 458)"></g></g></g><path id="w5utagn3smwz" d="M65.283 12.757a.35.35 0 0 0 .584.157l5.203-5.141-6.183 3.523.396 1.461zm-2.216-11.7a.35.35 0 0 0-.522.305v3.111l3.276-1.868-2.754-1.548zm3.728 2.105l-4.25 2.421v2.445l6.391-3.644-2.141-1.222zm4.708 3.303a.35.35 0 0 0 0-.609l-1.592-.9-7.365 4.199v1.782a.35.35 0 0 0 .523.305l8.435-4.777z M44.542 2.513c0-.433.355-.783.792-.783s.792.35.792.783-.355.783-.792.783-.792-.35-.792-.783zm59.171 0c0-.433.355-.783.792-.783s.792.35.792.783-.355.783-.792.783-.792-.35-.792-.783zm-85.951 7.636h-1.27v-.487c-.276.201-.864.609-1.881.609-1.202 0-2.274-.794-2.137-2.078.118-1.106 1.153-1.584 1.848-1.727l2.17-.345c0-.539-.29-.956-1.064-1.006s-1.21.305-1.571 1.017l-1.124-.605c1.218-2.631 5.029-1.764 5.029.414v4.207zm-1.27-2.86c.006.396-.062 1.112-.819 1.59-.587.37-1.841.299-1.903-.395-.049-.555.461-.791.906-.898l1.816-.297zm72.662 2.86h-1.27v-.487c-.276.201-.864.609-1.881.609-1.202 0-2.274-.794-2.137-2.078.118-1.106 1.153-1.584 1.848-1.727l2.17-.345c0-.539-.29-.956-1.064-1.006s-1.21.305-1.571 1.017l-1.124-.605c1.218-2.631 5.029-1.764 5.029.414v4.207zm-1.27-2.86c.006.396-.062 1.112-.82 1.59-.587.37-1.841.299-1.903-.395-.049-.555.461-.791.906-.898l1.816-.297zM99.096 10.149H97.85v-8.45h1.246v4.895l2.68-2.559h1.738l-2.633 2.535 2.715 3.578h-1.556l-2.077-2.707-.867.844v1.863zm6.053-6.114h-1.255v6.113h1.255V4.035zm-59.2 0h-1.255v6.113h1.255V4.035zm5.584 6.113V1.697h1.255v2.695c.361-.346 1-.485 1.47-.485 1.452 0 2.477 1.082 2.457 2.448v3.792h-1.27v-3.68c0-.408-.214-1.339-1.315-1.339-.968 0-1.342.756-1.342 1.339v3.681h-1.255zm-4.76-4.894V4.039h.621a.45.45 0 0 0 .45-.45v-.855h1.251v1.305h1.309v1.215h-1.309v3.109c0 .293.105.664.648.664.365 0 .531-.035.736-.07v1.137s-.361.113-.857.113c-1.398 0-1.777-1.051-1.777-1.788V5.254h-1.071zM36.528 4.039h-1.394l2.191 6.106h1.125l1.234-3.918 1.238 3.918h1.129l2.188-6.106h-1.383l-1.359 3.93-1.256-3.93h-1.124l-1.242 3.957-1.348-3.957zM26.212 7.141c-.02 1.566 1.187 3.129 3.223 3.129 1.566 0 2.383-.918 2.734-1.719L31.172 8c-.315.399-.801 1.094-1.738 1.094-1.145 0-1.825-.781-1.891-1.52h4.625c.074-.284.148-.995-.03-1.559-.336-1.064-1.221-2.102-2.839-2.102s-3.088 1.152-3.088 3.227zm1.363-.75h3.348c-.055-.43-.566-1.301-1.623-1.301a1.79 1.79 0 0 0-1.725 1.301zm-8.758.75c.038 1.758 1.277 3.133 3.145 3.133 1.074 0 1.723-.477 1.961-.672v.547h1.242V1.703h-1.258v2.888c-.414-.36-1.062-.68-1.93-.68-1.91 0-3.198 1.473-3.16 3.23zm1.309-.08c0 1.119.723 1.978 1.836 1.978a1.88 1.88 0 0 0 1.94-1.904c0-1.371-1.011-1.99-1.972-1.99s-1.805.798-1.805 1.916zm76.683-.028C96.771 5.275 95.532 3.9 93.664 3.9c-1.074 0-1.723.477-1.961.672v-.547h-1.242v8.22h1.258V9.583c.414.36 1.063.68 1.93.68 1.91 0 3.198-1.473 3.16-3.23zm-1.309.08c0-1.119-.723-1.978-1.836-1.978a1.88 1.88 0 0 0-1.94 1.904c0 1.371 1.011 1.99 1.972 1.99S95.5 8.231 95.5 7.113zM106.441 10.173V4.036h1.254v.382c.361-.346 1-.485 1.47-.485 1.452 0 2.477 1.082 2.457 2.448v3.792h-1.27V6.492c0-.408-.214-1.339-1.315-1.339-.969 0-1.342.756-1.342 1.339v3.681h-1.254zm-30.383-.021V1.824h1.084l4.215 5.777V1.824h1.32v8.328h-1.094l-4.207-5.796v5.796h-1.319zM5.24 10.149H4V2.377h1.014l2.664 3.597 2.654-3.592h1.03v7.766h-1.256V4.762L7.678 8.068 5.24 4.742v5.407z" transform="translate(620, 578)" fill="#ababab88" stroke="none"></path></svg>